<svg width="430" height="921"  fill="none" xmlns="http://www.w3.org/2000/svg">
<g clip-path="url(#clip0_50_300)">
<mask id="mask0_50_300" style="mask-type:luminance" maskUnits="userSpaceOnUse" x="-599" y="0" width="1627" height="1024">
<path d="M1028 0H-598.718V1023.26H1028V0Z" fill="white"/>
</mask>
<g mask="url(#mask0_50_300)">
<path d="M930.424 61.4165V961.84H-501.141V61.4165H930.424Z" stroke="#636363" stroke-width="0.518656"/>
<path d="M852.367 110.548V912.71H-423.085V110.548H852.367Z" stroke="#636363" stroke-width="0.518656"/>
<path d="M789.922 149.85V873.407H-360.64V149.85H789.922Z" stroke="#636363" stroke-width="0.518656"/>
<path d="M739.966 181.294V841.963H-310.684V181.294H739.966Z" stroke="#636363" stroke-width="0.518656"/>
<path d="M699.994 206.453V816.805H-270.711V206.453H699.994Z" stroke="#636363" stroke-width="0.518656"/>
<path d="M667.984 226.6V796.658H-238.701V226.6H667.984Z" stroke="#636363" stroke-width="0.518656"/>
<path d="M642.376 242.718V780.539H-213.094V242.718H642.376Z" stroke="#636363" stroke-width="0.518656"/>
<path d="M621.885 255.617V767.641H-192.603V255.617H621.885Z" stroke="#636363" stroke-width="0.518656"/>
<path d="M605.486 265.935V757.322H-176.204V265.935H605.486Z" stroke="#636363" stroke-width="0.518656"/>
<path d="M592.408 274.171V749.088H-163.124V274.171H592.408Z" stroke="#636363" stroke-width="0.518656"/>
<path d="M581.965 280.74V742.518H-152.682V280.74H581.965Z" stroke="#636363" stroke-width="0.518656"/>
<path d="M581.965 280.74V742.518H-152.682V280.74H581.965Z" stroke="#636363" stroke-width="0.518661"/>
<path d="M30.9795 280.74C30.9795 280.74 30.9795 396.184 30.9795 511.629C30.9795 627.073 30.9795 742.518 30.9795 742.518" stroke="#636363" stroke-width="0.518656"/>
<path d="M76.8945 280.74C76.8945 280.74 76.8945 396.184 76.8945 511.629C76.8945 627.073 76.8945 742.518 76.8945 742.518" stroke="#636363" stroke-width="0.518656"/>
<path d="M122.811 280.74C122.811 280.74 122.811 396.184 122.811 511.629C122.811 627.073 122.811 742.518 122.811 742.518" stroke="#636363" stroke-width="0.518656"/>
<path d="M168.726 280.74C168.726 280.74 168.726 396.184 168.726 511.629C168.726 627.073 168.726 742.518 168.726 742.518" stroke="#636363" stroke-width="0.518656"/>
<path d="M214.641 280.74C214.641 280.74 214.641 396.184 214.641 511.629C214.641 627.073 214.641 742.518 214.641 742.518" stroke="#636363" stroke-width="0.518656"/>
<path d="M260.557 280.74C260.557 280.74 260.557 396.184 260.557 511.629C260.557 627.073 260.557 742.518 260.557 742.518" stroke="#636363" stroke-width="0.518656"/>
<path d="M306.473 280.74C306.473 280.74 306.473 396.184 306.473 511.629C306.473 627.073 306.473 742.518 306.473 742.518" stroke="#636363" stroke-width="0.518656"/>
<path d="M352.388 280.74C352.388 280.74 352.388 396.184 352.388 511.629C352.388 627.073 352.388 742.518 352.388 742.518" stroke="#636363" stroke-width="0.518656"/>
<path d="M398.303 280.74C398.303 280.74 398.303 396.184 398.303 511.629C398.303 627.073 398.303 742.518 398.303 742.518" stroke="#636363" stroke-width="0.518656"/>
<path d="M-152.682 314.849C-152.682 314.849 30.9801 314.849 214.642 314.849C398.303 314.849 581.965 314.849 581.965 314.849" stroke="#636363" stroke-width="0.518656"/>
<path d="M-152.683 354.204C-152.683 354.204 30.9791 354.204 214.641 354.204C398.302 354.204 581.964 354.204 581.964 354.204" stroke="#636363" stroke-width="0.518656"/>
<path d="M-152.682 393.561C-152.682 393.561 30.9801 393.561 214.642 393.561C398.303 393.561 581.965 393.561 581.965 393.561" stroke="#636363" stroke-width="0.518656"/>
<path d="M-152.683 432.916C-152.683 432.916 30.9791 432.916 214.641 432.916C398.302 432.916 581.964 432.916 581.964 432.916" stroke="#636363" stroke-width="0.518656"/>
<path d="M-152.683 472.273C-152.683 472.273 30.9791 472.273 214.641 472.273C398.302 472.273 581.964 472.273 581.964 472.273" stroke="#636363" stroke-width="0.518656"/>
<path d="M-152.683 511.629C-152.683 511.629 30.9791 511.629 214.641 511.629C398.302 511.629 581.964 511.629 581.964 511.629" stroke="#636363" stroke-width="0.518656"/>
<path d="M-152.683 550.985C-152.683 550.985 30.9791 550.985 214.641 550.985C398.302 550.985 581.964 550.985 581.964 550.985" stroke="#636363" stroke-width="0.518656"/>
<path d="M-152.683 590.341C-152.683 590.341 30.9791 590.341 214.641 590.341C398.302 590.341 581.964 590.341 581.964 590.341" stroke="#636363" stroke-width="0.518656"/>
<path d="M-152.682 629.697C-152.682 629.697 30.9801 629.697 214.642 629.697C398.303 629.697 581.965 629.697 581.965 629.697" stroke="#636363" stroke-width="0.518656"/>
<path d="M-152.682 669.053C-152.682 669.053 30.9801 669.053 214.642 669.053C398.303 669.053 581.965 669.053 581.965 669.053" stroke="#636363" stroke-width="0.518656"/>
<path d="M-152.683 708.409C-152.683 708.409 30.9791 708.409 214.641 708.409C398.302 708.409 581.964 708.409 581.964 708.409" stroke="#636363" stroke-width="0.518656"/>
<path d="M-192.038 0L30.9795 280.74" stroke="#636363" stroke-width="0.518656"/>
<path d="M398.303 280.74L621.32 -0.000276327" stroke="#636363" stroke-width="0.518656"/>
<path d="M-90.3688 0L76.8945 280.74" stroke="#636363" stroke-width="0.518656"/>
<path d="M352.387 280.74L519.65 -0.000276327" stroke="#636363" stroke-width="0.518656"/>
<path d="M11.3017 0L122.811 280.74" stroke="#636363" stroke-width="0.518656"/>
<path d="M306.472 280.74L417.98 -0.000276327" stroke="#636363" stroke-width="0.518656"/>
<path d="M112.971 0L168.726 280.74" stroke="#636363" stroke-width="0.518656"/>
<path d="M260.556 280.74L316.311 -0.000276327" stroke="#636363" stroke-width="0.518656"/>
<path d="M214.642 0V280.74" stroke="#636363" stroke-width="0.518656"/>
<path d="M30.9797 742.518L-192.038 1023.26" stroke="#636363" stroke-width="0.518656"/>
<path d="M398.303 742.518L621.32 1023.26" stroke="#636363" stroke-width="0.518656"/>
<path d="M76.8952 742.518L-90.3682 1023.26" stroke="#636363" stroke-width="0.518656"/>
<path d="M352.387 742.518L519.65 1023.26" stroke="#636363" stroke-width="0.518656"/>
<path d="M122.811 742.518L11.3018 1023.26" stroke="#636363" stroke-width="0.518656"/>
<path d="M306.473 742.518L417.981 1023.26" stroke="#636363" stroke-width="0.518656"/>
<path d="M168.726 742.518L112.972 1023.26" stroke="#636363" stroke-width="0.518656"/>
<path d="M260.556 742.518L316.311 1023.26" stroke="#636363" stroke-width="0.518656"/>
<path d="M214.642 742.518V1023.26" stroke="#636363" stroke-width="0.518656"/>
</g>
<rect x="-444.554" y="777.649" width="1301.66" height="244.27" fill="url(#paint0_linear_50_300)"/>
<rect x="304" y="1021" width="1021" height="154" transform="rotate(-90 304 1021)" fill="url(#paint1_linear_50_300)"/>
<rect width="1022" height="192" transform="matrix(4.37114e-08 -1 -1 -4.37114e-08 170 1022)" fill="url(#paint2_linear_50_300)"/>
<rect width="1289.61" height="120.462" transform="matrix(1 0 0 -1 -432.508 120.462)" fill="url(#paint3_linear_50_300)"/>
</g>
<defs>
<linearGradient id="paint0_linear_50_300" x1="187.537" y1="1021.92" x2="187.537" y2="777.649" gradientUnits="userSpaceOnUse">
<stop stop-color="#050A02"/>
<stop offset="1" stop-color="#050A02" stop-opacity="0"/>
</linearGradient>
<linearGradient id="paint1_linear_50_300" x1="799.802" y1="1175" x2="799.802" y2="1021" gradientUnits="userSpaceOnUse">
<stop stop-color="#050A02"/>
<stop offset="1" stop-color="#050A02" stop-opacity="0"/>
</linearGradient>
<linearGradient id="paint2_linear_50_300" x1="496.287" y1="192" x2="496.287" y2="-1.18126e-06" gradientUnits="userSpaceOnUse">
<stop stop-color="#050A02"/>
<stop offset="1" stop-color="#050A02" stop-opacity="0"/>
</linearGradient>
<linearGradient id="paint3_linear_50_300" x1="626.241" y1="120.462" x2="626.241" y2="-7.41129e-07" gradientUnits="userSpaceOnUse">
<stop stop-color="#050A02"/>
<stop offset="1" stop-color="#050A02" stop-opacity="0"/>
</linearGradient>
<clipPath id="clip0_50_300">
<rect width="1626.72" height="1023.26" fill="white" transform="translate(-598.718)"/>
</clipPath>
</defs>
</svg>
