<svg width="1920" height="1284"  fill="none" xmlns="http://www.w3.org/2000/svg">
<g clip-path="url(#clip0_60_3)">
<mask id="mask0_60_3" style="mask-type:luminance" maskUnits="userSpaceOnUse" x="-256" y="-245" width="2432" height="1529">
<path d="M2175.36 -245H-255.359V1284H2175.36V-245Z" fill="white"/>
</mask>
<g mask="url(#mask0_60_3)">
<path d="M2029.55 -153.228V1192.23H-109.556V-153.228H2029.55Z" stroke="#636363" stroke-width="0.775"/>
<path d="M1912.92 -79.8145V1118.81H7.08008V-79.8145H1912.92Z" stroke="#636363" stroke-width="0.775"/>
<path d="M1819.61 -21.0869V1060.09H100.388V-21.0869H1819.61Z" stroke="#636363" stroke-width="0.775"/>
<path d="M1744.97 25.8984V1013.1H175.035V25.8984H1744.97Z" stroke="#636363" stroke-width="0.775"/>
<path d="M1685.24 63.4912V975.508H234.764V63.4912H1685.24Z" stroke="#636363" stroke-width="0.775"/>
<path d="M1637.41 93.5957V945.404H282.594V93.5957H1637.41Z" stroke="#636363" stroke-width="0.775"/>
<path d="M1599.14 117.682V921.318H320.857V117.682H1599.14Z" stroke="#636363" stroke-width="0.775"/>
<path d="M1568.52 136.955V902.045H351.478V136.955H1568.52Z" stroke="#636363" stroke-width="0.775"/>
<path d="M1544.02 152.373V886.626H375.98V152.373H1544.02Z" stroke="#636363" stroke-width="0.775"/>
<path d="M1524.48 164.679V874.323H395.524V164.679H1524.48Z" stroke="#636363" stroke-width="0.775"/>
<path d="M1508.87 174.495V864.505H411.128V174.495H1508.87Z" stroke="#636363" stroke-width="0.775"/>
<path d="M1508.87 174.495V864.505H411.128V174.495H1508.87Z" stroke="#636363" stroke-width="0.775007"/>
<path d="M479.736 174.495C479.736 174.495 479.736 346.998 479.736 519.5C479.736 692.003 479.736 864.505 479.736 864.505" stroke="#636363" stroke-width="0.775"/>
<path d="M548.346 174.495C548.346 174.495 548.346 346.998 548.346 519.5C548.346 692.003 548.346 864.505 548.346 864.505" stroke="#636363" stroke-width="0.775"/>
<path d="M616.955 174.495C616.955 174.495 616.955 346.998 616.955 519.5C616.955 692.003 616.955 864.505 616.955 864.505" stroke="#636363" stroke-width="0.775"/>
<path d="M685.564 174.495C685.564 174.495 685.564 346.998 685.564 519.5C685.564 692.003 685.564 864.505 685.564 864.505" stroke="#636363" stroke-width="0.775"/>
<path d="M754.173 174.495C754.173 174.495 754.173 346.998 754.173 519.5C754.173 692.003 754.173 864.505 754.173 864.505" stroke="#636363" stroke-width="0.775"/>
<path d="M822.781 174.495C822.781 174.495 822.781 346.998 822.781 519.5C822.781 692.003 822.781 864.505 822.781 864.505" stroke="#636363" stroke-width="0.775"/>
<path d="M891.391 174.495C891.391 174.495 891.391 346.998 891.391 519.5C891.391 692.003 891.391 864.505 891.391 864.505" stroke="#636363" stroke-width="0.775"/>
<path d="M960 174.495C960 174.495 960 346.998 960 519.5C960 692.003 960 864.505 960 864.505" stroke="#636363" stroke-width="0.775"/>
<path d="M1028.61 174.495C1028.61 174.495 1028.61 346.998 1028.61 519.5C1028.61 692.003 1028.61 864.505 1028.61 864.505" stroke="#636363" stroke-width="0.775"/>
<path d="M1097.22 174.495C1097.22 174.495 1097.22 346.998 1097.22 519.5C1097.22 692.003 1097.22 864.505 1097.22 864.505" stroke="#636363" stroke-width="0.775"/>
<path d="M1165.83 174.495C1165.83 174.495 1165.83 346.998 1165.83 519.5C1165.83 692.003 1165.83 864.505 1165.83 864.505" stroke="#636363" stroke-width="0.775"/>
<path d="M1234.44 174.495C1234.44 174.495 1234.44 346.998 1234.44 519.5C1234.44 692.003 1234.44 864.505 1234.44 864.505" stroke="#636363" stroke-width="0.775"/>
<path d="M1303.04 174.495C1303.04 174.495 1303.04 346.998 1303.04 519.5C1303.04 692.003 1303.04 864.505 1303.04 864.505" stroke="#636363" stroke-width="0.775"/>
<path d="M1371.65 174.495C1371.65 174.495 1371.65 346.998 1371.65 519.5C1371.65 692.003 1371.65 864.505 1371.65 864.505" stroke="#636363" stroke-width="0.775"/>
<path d="M1440.26 174.495C1440.26 174.495 1440.26 346.998 1440.26 519.5C1440.26 692.003 1440.26 864.505 1440.26 864.505" stroke="#636363" stroke-width="0.775"/>
<path d="M411.128 225.462C411.128 225.462 685.564 225.462 960 225.462C1234.44 225.462 1508.87 225.462 1508.87 225.462" stroke="#636363" stroke-width="0.775"/>
<path d="M411.128 284.27C411.128 284.27 685.564 284.27 960 284.27C1234.44 284.27 1508.87 284.27 1508.87 284.27" stroke="#636363" stroke-width="0.775"/>
<path d="M411.128 343.077C411.128 343.077 685.564 343.077 960 343.077C1234.44 343.077 1508.87 343.077 1508.87 343.077" stroke="#636363" stroke-width="0.775"/>
<path d="M411.128 401.885C411.128 401.885 685.564 401.885 960 401.885C1234.44 401.885 1508.87 401.885 1508.87 401.885" stroke="#636363" stroke-width="0.775"/>
<path d="M411.128 460.692C411.128 460.692 685.564 460.692 960 460.692C1234.44 460.692 1508.87 460.692 1508.87 460.692" stroke="#636363" stroke-width="0.775"/>
<path d="M411.128 519.5C411.128 519.5 685.564 519.5 960 519.5C1234.44 519.5 1508.87 519.5 1508.87 519.5" stroke="#636363" stroke-width="0.775"/>
<path d="M411.128 578.308C411.128 578.308 685.564 578.308 960 578.308C1234.44 578.308 1508.87 578.308 1508.87 578.308" stroke="#636363" stroke-width="0.775"/>
<path d="M411.128 637.115C411.128 637.115 685.564 637.115 960 637.115C1234.44 637.115 1508.87 637.115 1508.87 637.115" stroke="#636363" stroke-width="0.775"/>
<path d="M411.128 695.923C411.128 695.923 685.564 695.923 960 695.923C1234.44 695.923 1508.87 695.923 1508.87 695.923" stroke="#636363" stroke-width="0.775"/>
<path d="M411.128 754.73C411.128 754.73 685.564 754.73 960 754.73C1234.44 754.73 1508.87 754.73 1508.87 754.73" stroke="#636363" stroke-width="0.775"/>
<path d="M411.128 813.539C411.128 813.539 685.564 813.539 960 813.539C1234.44 813.539 1508.87 813.539 1508.87 813.539" stroke="#636363" stroke-width="0.775"/>
<path d="M-103.44 -245L479.736 174.495" stroke="#636363" stroke-width="0.775"/>
<path d="M1440.26 174.495L2023.44 -245" stroke="#636363" stroke-width="0.775"/>
<path d="M48.4803 -245L548.346 174.495" stroke="#636363" stroke-width="0.775"/>
<path d="M1371.65 174.495L1871.52 -245" stroke="#636363" stroke-width="0.775"/>
<path d="M200.401 -245L616.955 174.495" stroke="#636363" stroke-width="0.775"/>
<path d="M1303.05 174.495L1719.6 -245" stroke="#636363" stroke-width="0.775"/>
<path d="M352.32 -245L685.563 174.495" stroke="#636363" stroke-width="0.775"/>
<path d="M1234.44 174.495L1567.68 -245" stroke="#636363" stroke-width="0.775"/>
<path d="M504.24 -245L754.173 174.495" stroke="#636363" stroke-width="0.775"/>
<path d="M1165.83 174.495L1415.76 -245" stroke="#636363" stroke-width="0.775"/>
<path d="M656.159 -245L822.781 174.495" stroke="#636363" stroke-width="0.775"/>
<path d="M1097.22 174.495L1263.84 -245" stroke="#636363" stroke-width="0.775"/>
<path d="M808.08 -245L891.391 174.495" stroke="#636363" stroke-width="0.775"/>
<path d="M1028.61 174.495L1111.92 -245" stroke="#636363" stroke-width="0.775"/>
<path d="M960 -245V174.495" stroke="#636363" stroke-width="0.775"/>
<path d="M479.737 864.505L-103.439 1284" stroke="#636363" stroke-width="0.775"/>
<path d="M1440.26 864.505L2023.44 1284" stroke="#636363" stroke-width="0.775"/>
<path d="M548.346 864.505L48.4805 1284" stroke="#636363" stroke-width="0.775"/>
<path d="M1371.65 864.505L1871.52 1284" stroke="#636363" stroke-width="0.775"/>
<path d="M616.955 864.505L200.4 1284" stroke="#636363" stroke-width="0.775"/>
<path d="M1303.04 864.505L1719.6 1284" stroke="#636363" stroke-width="0.775"/>
<path d="M685.564 864.505L352.32 1284" stroke="#636363" stroke-width="0.775"/>
<path d="M1234.44 864.505L1567.68 1284" stroke="#636363" stroke-width="0.775"/>
<path d="M754.173 864.505L504.24 1284" stroke="#636363" stroke-width="0.775"/>
<path d="M1165.83 864.505L1415.76 1284" stroke="#636363" stroke-width="0.775"/>
<path d="M822.782 864.505L656.16 1284" stroke="#636363" stroke-width="0.775"/>
<path d="M1097.22 864.505L1263.84 1284" stroke="#636363" stroke-width="0.775"/>
<path d="M891.391 864.505L808.08 1284" stroke="#636363" stroke-width="0.775"/>
<path d="M1028.61 864.505L1111.92 1284" stroke="#636363" stroke-width="0.775"/>
<path d="M960 864.505V1284" stroke="#636363" stroke-width="0.775"/>
<path d="M1508.87 225.462L2175.36 -117.583" stroke="#636363" stroke-width="0.775"/>
<path d="M1508.87 813.539L2175.36 1156.58" stroke="#636363" stroke-width="0.775"/>
<path d="M1508.87 284.27L2175.36 9.83361" stroke="#636363" stroke-width="0.775"/>
<path d="M1508.87 754.73L2175.36 1029.17" stroke="#636363" stroke-width="0.775"/>
<path d="M1508.87 343.077L2175.36 137.25" stroke="#636363" stroke-width="0.775"/>
<path d="M1508.87 695.923L2175.36 901.75" stroke="#636363" stroke-width="0.775"/>
<path d="M1508.87 401.885L2175.36 264.667" stroke="#636363" stroke-width="0.775"/>
<path d="M1508.87 637.115L2175.36 774.333" stroke="#636363" stroke-width="0.775"/>
<path d="M1508.87 460.692L2175.36 392.083" stroke="#636363" stroke-width="0.775"/>
<path d="M1508.87 578.308L2175.36 646.917" stroke="#636363" stroke-width="0.775"/>
<path d="M1508.87 519.5H2175.36" stroke="#636363" stroke-width="0.775"/>
<path d="M-255.359 -117.583L411.128 225.462" stroke="#636363" stroke-width="0.775"/>
<path d="M411.128 813.539L-255.359 1156.58" stroke="#636363" stroke-width="0.775"/>
<path d="M-255.359 9.83301L411.128 284.269" stroke="#636363" stroke-width="0.775"/>
<path d="M411.128 754.73L-255.359 1029.17" stroke="#636363" stroke-width="0.775"/>
<path d="M-255.359 137.25L411.128 343.077" stroke="#636363" stroke-width="0.775"/>
<path d="M411.128 695.923L-255.359 901.75" stroke="#636363" stroke-width="0.775"/>
<path d="M-255.359 264.667L411.128 401.885" stroke="#636363" stroke-width="0.775"/>
<path d="M411.128 637.115L-255.359 774.333" stroke="#636363" stroke-width="0.775"/>
<path d="M-255.359 392.083L411.128 460.692" stroke="#636363" stroke-width="0.775"/>
<path d="M411.128 578.308L-255.359 646.917" stroke="#636363" stroke-width="0.775"/>
<path d="M411.128 519.5H-255.359" stroke="#636363" stroke-width="0.775"/>
<path d="M-255.359 -245L411.128 174.495" stroke="#636363" stroke-width="0.775"/>
<path d="M1508.87 174.495L2175.36 -245" stroke="#636363" stroke-width="0.775"/>
<path d="M1508.87 864.505L2175.36 1284" stroke="#636363" stroke-width="0.775"/>
<path d="M411.128 864.505L-255.359 1284" stroke="#636363" stroke-width="0.775"/>
</g>
<rect x="-25" y="917" width="1945" height="365" fill="url(#paint0_linear_60_3)"/>
<rect x="1555" y="1282" width="1284" height="365" transform="rotate(-90 1555 1282)" fill="url(#paint1_linear_60_3)"/>
<rect width="1927" height="180" transform="matrix(1 0 0 -1 -7 178)" fill="url(#paint2_linear_60_3)"/>
</g>
<defs>
<linearGradient id="paint0_linear_60_3" x1="919.5" y1="1282" x2="919.5" y2="917" gradientUnits="userSpaceOnUse">
<stop stop-color="#050A02"/>
<stop offset="1" stop-color="#050A02" stop-opacity="0"/>
</linearGradient>
<linearGradient id="paint1_linear_60_3" x1="2178.52" y1="1647" x2="2178.52" y2="1282" gradientUnits="userSpaceOnUse">
<stop stop-color="#050A02"/>
<stop offset="1" stop-color="#050A02" stop-opacity="0"/>
</linearGradient>
<linearGradient id="paint2_linear_60_3" x1="935.759" y1="180" x2="935.759" y2="-1.10743e-06" gradientUnits="userSpaceOnUse">
<stop stop-color="#050A02"/>
<stop offset="1" stop-color="#050A02" stop-opacity="0"/>
</linearGradient>
<clipPath id="clip0_60_3">
<rect width="2430.72" height="1529" fill="white" transform="translate(-255.359 -245)"/>
</clipPath>
</defs>
</svg>
